<?xml version="1.0"?>
<svg xmlns="http://www.w3.org/2000/svg" id="outline" viewBox="0 0 64 64" width="512" height="512"><path d="M33,40a1,1,0,0,0-1,1v4a1,1,0,0,0,2,0V41A1,1,0,0,0,33,40Z"/><path d="M38,44a1,1,0,0,0-1,1v4a1,1,0,0,0,2,0V45A1,1,0,0,0,38,44Z"/><path d="M44,40a1,1,0,0,0-1,1v4a1,1,0,0,0,2,0V41A1,1,0,0,0,44,40Z"/><path d="M50,44a1,1,0,0,0-1,1v4a1,1,0,0,0,2,0V45A1,1,0,0,0,50,44Z"/><path d="M55,40a1,1,0,0,0-1,1v4a1,1,0,0,0,2,0V41A1,1,0,0,0,55,40Z"/><path d="M38.062,36.375a1,1,0,0,0-1,1v4a1,1,0,0,0,2,0v-4A1,1,0,0,0,38.062,36.375Z"/><path d="M50,36a1,1,0,0,0-1,1v4a1,1,0,0,0,2,0V37A1,1,0,0,0,50,36Z"/><path d="M58,29a1,1,0,0,0-.132-.5L52.9,19.814A2.986,2.986,0,0,0,50.143,18H47V11a5.006,5.006,0,0,0-5-5H28V5a3,3,0,0,0-3-3H19a3,3,0,0,0-3,3V6H12a5.006,5.006,0,0,0-5,5V62h6V13a1,1,0,0,1,1-1h2v1a3,3,0,0,0,3,3h2V45.142a4,4,0,1,0,2,0V16h2a3,3,0,0,0,3-3V12H40a1,1,0,0,1,1,1v5H37.857A2.986,2.986,0,0,0,35.1,19.814L30.132,28.5A1,1,0,0,0,30,29h0v4a1,1,0,0,0,1,1H57a1,1,0,0,0,1-1V29ZM24,49a2,2,0,1,1-2-2A2,2,0,0,1,24,49ZM11,13V60H9V11a3,3,0,0,1,3-3h4v2H14A3,3,0,0,0,11,13Zm15,0a1,1,0,0,1-1,1H19a1,1,0,0,1-1-1V5a1,1,0,0,1,1-1h6a1,1,0,0,1,1,1Zm14-3H28V8H42a3,3,0,0,1,3,3v7H43V13A3,3,0,0,0,40,10ZM33.867,26H39V24H35.011l1.857-3.247a.944.944,0,0,0,.06-.124A1,1,0,0,1,37.857,20H50.143a1,1,0,0,1,.929.629.944.944,0,0,0,.06.124L52.989,24H45v2h9.133l1.143,2H32.724ZM32,32V30H56v2Z"/></svg>
